<?xml version="1.0" standalone="no"?><!DOCTYPE svg PUBLIC "-//W3C//DTD SVG 1.1//EN" "http://www.w3.org/Graphics/SVG/1.1/DTD/svg11.dtd"><svg t="1497505674288" class="icon" style="" viewBox="0 0 1024 1024" version="1.1" xmlns="http://www.w3.org/2000/svg" p-id="3448" xmlns:xlink="http://www.w3.org/1999/xlink" width="32" height="32"><defs><style type="text/css"></style></defs><path d="M509.270842 9.385764c-276.927123 0-501.420037 224.492914-501.420037 501.420037s224.492914 501.420037 501.420037 501.420037 501.420037-224.492914 501.420037-501.420037S786.196942 9.385764 509.270842 9.385764zM849.356424 850.891384c-44.176129 44.177152-95.613638 78.858022-152.882969 103.080703-59.281151 25.074072-122.265648 37.787628-187.202613 37.787628s-127.921461-12.713556-187.202613-37.787628c-57.269331-24.222681-108.706841-58.904575-152.882969-103.080703-44.177152-44.176129-78.858022-95.613638-103.080703-152.882969-25.074072-59.281151-37.787628-122.265648-37.787628-187.202613S41.030485 382.88434 66.104557 323.603189c24.222681-57.269331 58.904575-108.706841 103.080703-152.882969 44.176129-44.177152 95.613638-78.858022 152.882969-103.080703 59.281151-25.074072 122.265648-37.787628 187.202613-37.787628s127.921461 12.713556 187.202613 37.787628c57.269331 24.222681 108.706841 58.904575 152.882969 103.080703 44.177152 44.176129 78.858022 95.613638 103.080703 152.882969 25.074072 59.281151 37.787628 122.265648 37.787628 187.202613s-12.713556 127.921461-37.787628 187.202613C928.214447 755.277746 893.532553 806.715255 849.356424 850.891384z" p-id="3449"></path><path d="M797.945521 209.194486 512.084934 495.055073 226.224348 209.194486 211.752752 223.666082 497.613338 509.526669 213.287711 793.852296 227.759307 808.323892 512.084934 523.998265 796.410562 808.323892 810.882158 793.852296 526.556531 509.526669 812.417117 223.666082Z" p-id="3450"></path></svg>